<svg width="49" height="10" viewBox="0 0 49 10" fill="none" xmlns="http://www.w3.org/2000/svg">
<path d="M8.37 0.835V8H7.52V2.735C7.52 2.665 7.52167 2.59 7.525 2.51C7.53167 2.43 7.53833 2.34833 7.545 2.265L5.085 6.745C5.00833 6.895 4.89167 6.97 4.735 6.97H4.595C4.43833 6.97 4.32167 6.895 4.245 6.745L1.735 2.245C1.755 2.42167 1.765 2.585 1.765 2.735V8H0.915V0.835H1.63C1.71667 0.835 1.78333 0.843333 1.83 0.86C1.87667 0.876666 1.92167 0.923333 1.965 1L4.44 5.41C4.48 5.49 4.51833 5.57333 4.555 5.66C4.595 5.74667 4.63167 5.835 4.665 5.925C4.69833 5.835 4.73333 5.74667 4.77 5.66C4.80667 5.57 4.84667 5.485 4.89 5.405L7.32 1C7.36 0.923333 7.40333 0.876666 7.45 0.86C7.5 0.843333 7.56833 0.835 7.655 0.835H8.37ZM12.5906 5.72C12.1806 5.73333 11.8306 5.76667 11.5406 5.82C11.254 5.87 11.019 5.93667 10.8356 6.02C10.6556 6.10333 10.524 6.20167 10.4406 6.315C10.3606 6.42833 10.3206 6.555 10.3206 6.695C10.3206 6.82833 10.3423 6.94333 10.3856 7.04C10.429 7.13667 10.4873 7.21667 10.5606 7.28C10.6373 7.34 10.7256 7.385 10.8256 7.415C10.929 7.44167 11.039 7.455 11.1556 7.455C11.3123 7.455 11.4556 7.44 11.5856 7.41C11.7156 7.37667 11.8373 7.33 11.9506 7.27C12.0673 7.21 12.1773 7.13833 12.2806 7.055C12.3873 6.97167 12.4906 6.87667 12.5906 6.77V5.72ZM9.71563 3.65C9.99563 3.38 10.2973 3.17833 10.6206 3.045C10.944 2.91167 11.3023 2.845 11.6956 2.845C11.979 2.845 12.2306 2.89167 12.4506 2.985C12.6706 3.07833 12.8556 3.20833 13.0056 3.375C13.1556 3.54167 13.269 3.74333 13.3456 3.98C13.4223 4.21667 13.4606 4.47667 13.4606 4.76V8H13.0656C12.979 8 12.9123 7.98667 12.8656 7.96C12.819 7.93 12.7823 7.87333 12.7556 7.79L12.6556 7.31C12.5223 7.43333 12.3923 7.54333 12.2656 7.64C12.139 7.73333 12.0056 7.81333 11.8656 7.88C11.7256 7.94333 11.5756 7.99167 11.4156 8.025C11.259 8.06167 11.084 8.08 10.8906 8.08C10.694 8.08 10.509 8.05333 10.3356 8C10.1623 7.94333 10.0106 7.86 9.88063 7.75C9.75396 7.64 9.65229 7.50167 9.57563 7.335C9.50229 7.165 9.46563 6.965 9.46563 6.735C9.46563 6.535 9.52063 6.34333 9.63063 6.16C9.74063 5.97333 9.91896 5.80833 10.1656 5.665C10.4123 5.52167 10.734 5.405 11.1306 5.315C11.5273 5.22167 12.014 5.16833 12.5906 5.155V4.76C12.5906 4.36667 12.5056 4.07 12.3356 3.87C12.1656 3.66667 11.9173 3.565 11.5906 3.565C11.3706 3.565 11.1856 3.59333 11.0356 3.65C10.889 3.70333 10.7606 3.765 10.6506 3.835C10.544 3.90167 10.4506 3.96333 10.3706 4.02C10.294 4.07333 10.2173 4.1 10.1406 4.1C10.0806 4.1 10.029 4.085 9.98563 4.055C9.94229 4.02167 9.90563 3.98167 9.87562 3.935L9.71563 3.65ZM15.7363 0.635V8H14.8463V0.635H15.7363ZM20.5696 4.915C20.5696 4.70833 20.5396 4.52 20.4796 4.35C20.4229 4.17667 20.3379 4.02833 20.2246 3.905C20.1146 3.77833 19.9796 3.68167 19.8196 3.615C19.6596 3.545 19.4779 3.51 19.2746 3.51C18.8479 3.51 18.5096 3.635 18.2596 3.885C18.0129 4.13167 17.8596 4.475 17.7996 4.915H20.5696ZM21.2896 7.29C21.1796 7.42333 21.0479 7.54 20.8946 7.64C20.7413 7.73667 20.5763 7.81667 20.3996 7.88C20.2263 7.94333 20.0463 7.99 19.8596 8.02C19.6729 8.05333 19.4879 8.07 19.3046 8.07C18.9546 8.07 18.6313 8.01167 18.3346 7.895C18.0413 7.775 17.7863 7.60167 17.5696 7.375C17.3563 7.145 17.1896 6.86167 17.0696 6.525C16.9496 6.18833 16.8896 5.80167 16.8896 5.365C16.8896 5.01167 16.9429 4.68167 17.0496 4.375C17.1596 4.06833 17.3163 3.80333 17.5196 3.58C17.7229 3.35333 17.9713 3.17667 18.2646 3.05C18.5579 2.92 18.8879 2.855 19.2546 2.855C19.5579 2.855 19.8379 2.90667 20.0946 3.01C20.3546 3.11 20.5779 3.25667 20.7646 3.45C20.9546 3.64 21.1029 3.87667 21.2096 4.16C21.3163 4.44 21.3696 4.76 21.3696 5.12C21.3696 5.26 21.3546 5.35333 21.3246 5.4C21.2946 5.44667 21.2379 5.47 21.1546 5.47H17.7696C17.7796 5.79 17.8229 6.06833 17.8996 6.305C17.9796 6.54167 18.0896 6.74 18.2296 6.9C18.3696 7.05667 18.5363 7.175 18.7296 7.255C18.9229 7.33167 19.1396 7.37 19.3796 7.37C19.6029 7.37 19.7946 7.345 19.9546 7.295C20.1179 7.24167 20.2579 7.185 20.3746 7.125C20.4913 7.065 20.5879 7.01 20.6646 6.96C20.7446 6.90667 20.8129 6.88 20.8696 6.88C20.9429 6.88 20.9996 6.90833 21.0396 6.965L21.2896 7.29ZM22.4078 9.21C22.3811 9.18667 22.3628 9.165 22.3528 9.145C22.3428 9.125 22.3378 9.1 22.3378 9.07C22.3378 9.04667 22.3445 9.02333 22.3578 9C22.3745 8.97667 22.3928 8.955 22.4128 8.935C22.4461 8.89833 22.4878 8.85 22.5378 8.79C22.5911 8.73 22.6445 8.65833 22.6978 8.575C22.7511 8.495 22.7995 8.405 22.8428 8.305C22.8895 8.20833 22.9228 8.105 22.9428 7.995C22.9328 7.99833 22.9211 8 22.9078 8C22.8978 8 22.8878 8 22.8778 8C22.7045 8 22.5628 7.94333 22.4528 7.83C22.3461 7.71333 22.2928 7.565 22.2928 7.385C22.2928 7.22833 22.3461 7.095 22.4528 6.985C22.5628 6.875 22.7078 6.82 22.8878 6.82C22.9878 6.82 23.0761 6.83833 23.1528 6.875C23.2295 6.91167 23.2928 6.96333 23.3428 7.03C23.3961 7.09333 23.4361 7.16833 23.4628 7.255C23.4895 7.33833 23.5028 7.43 23.5028 7.53C23.5028 7.68 23.4811 7.83667 23.4378 8C23.3978 8.16 23.3361 8.31833 23.2528 8.475C23.1728 8.635 23.0745 8.79 22.9578 8.94C22.8411 9.09 22.7078 9.22833 22.5578 9.355L22.4078 9.21ZM30.032 5.72C29.622 5.73333 29.272 5.76667 28.982 5.82C28.6954 5.87 28.4604 5.93667 28.277 6.02C28.097 6.10333 27.9654 6.20167 27.882 6.315C27.802 6.42833 27.762 6.555 27.762 6.695C27.762 6.82833 27.7837 6.94333 27.827 7.04C27.8704 7.13667 27.9287 7.21667 28.002 7.28C28.0787 7.34 28.167 7.385 28.267 7.415C28.3704 7.44167 28.4804 7.455 28.597 7.455C28.7537 7.455 28.897 7.44 29.027 7.41C29.157 7.37667 29.2787 7.33 29.392 7.27C29.5087 7.21 29.6187 7.13833 29.722 7.055C29.8287 6.97167 29.932 6.87667 30.032 6.77V5.72ZM27.157 3.65C27.437 3.38 27.7387 3.17833 28.062 3.045C28.3854 2.91167 28.7437 2.845 29.137 2.845C29.4204 2.845 29.672 2.89167 29.892 2.985C30.112 3.07833 30.297 3.20833 30.447 3.375C30.597 3.54167 30.7104 3.74333 30.787 3.98C30.8637 4.21667 30.902 4.47667 30.902 4.76V8H30.507C30.4204 8 30.3537 7.98667 30.307 7.96C30.2604 7.93 30.2237 7.87333 30.197 7.79L30.097 7.31C29.9637 7.43333 29.8337 7.54333 29.707 7.64C29.5804 7.73333 29.447 7.81333 29.307 7.88C29.167 7.94333 29.017 7.99167 28.857 8.025C28.7004 8.06167 28.5254 8.08 28.332 8.08C28.1354 8.08 27.9504 8.05333 27.777 8C27.6037 7.94333 27.452 7.86 27.322 7.75C27.1954 7.64 27.0937 7.50167 27.017 7.335C26.9437 7.165 26.907 6.965 26.907 6.735C26.907 6.535 26.962 6.34333 27.072 6.16C27.182 5.97333 27.3604 5.80833 27.607 5.665C27.8537 5.52167 28.1754 5.405 28.572 5.315C28.9687 5.22167 29.4554 5.16833 30.032 5.155V4.76C30.032 4.36667 29.947 4.07 29.777 3.87C29.607 3.66667 29.3587 3.565 29.032 3.565C28.812 3.565 28.627 3.59333 28.477 3.65C28.3304 3.70333 28.202 3.765 28.092 3.835C27.9854 3.90167 27.892 3.96333 27.812 4.02C27.7354 4.07333 27.6587 4.1 27.582 4.1C27.522 4.1 27.4704 4.085 27.427 4.055C27.3837 4.02167 27.347 3.98167 27.317 3.935L27.157 3.65ZM35.5577 4.14C35.3911 3.91667 35.2111 3.76167 35.0177 3.675C34.8244 3.585 34.6077 3.54 34.3677 3.54C33.8977 3.54 33.5361 3.70833 33.2827 4.045C33.0294 4.38167 32.9027 4.86167 32.9027 5.485C32.9027 5.815 32.9311 6.09833 32.9877 6.335C33.0444 6.56833 33.1277 6.76167 33.2377 6.915C33.3477 7.065 33.4827 7.175 33.6427 7.245C33.8027 7.315 33.9844 7.35 34.1877 7.35C34.4811 7.35 34.7361 7.28333 34.9527 7.15C35.1727 7.01667 35.3744 6.82833 35.5577 6.585V4.14ZM36.4477 0.635V8H35.9177C35.7911 8 35.7111 7.93833 35.6777 7.815L35.5977 7.2C35.3811 7.46 35.1344 7.67 34.8577 7.83C34.5811 7.99 34.2611 8.07 33.8977 8.07C33.6077 8.07 33.3444 8.015 33.1077 7.905C32.8711 7.79167 32.6694 7.62667 32.5027 7.41C32.3361 7.19333 32.2077 6.92333 32.1177 6.6C32.0277 6.27667 31.9827 5.905 31.9827 5.485C31.9827 5.11167 32.0327 4.765 32.1327 4.445C32.2327 4.12167 32.3761 3.84167 32.5627 3.605C32.7494 3.36833 32.9777 3.18333 33.2477 3.05C33.5211 2.91333 33.8277 2.845 34.1677 2.845C34.4777 2.845 34.7427 2.89833 34.9627 3.005C35.1861 3.10833 35.3844 3.25333 35.5577 3.44V0.635H36.4477ZM42.0184 2.935V8H41.4884C41.3618 8 41.2818 7.93833 41.2484 7.815L41.1784 7.27C40.9584 7.51333 40.7118 7.71 40.4384 7.86C40.1651 8.00667 39.8518 8.08 39.4984 8.08C39.2218 8.08 38.9768 8.035 38.7634 7.945C38.5534 7.85167 38.3768 7.72167 38.2334 7.555C38.0901 7.38833 37.9818 7.18667 37.9084 6.95C37.8384 6.71333 37.8034 6.45167 37.8034 6.165V2.935H38.6934V6.165C38.6934 6.54833 38.7801 6.845 38.9534 7.055C39.1301 7.265 39.3984 7.37 39.7584 7.37C40.0218 7.37 40.2668 7.30833 40.4934 7.185C40.7234 7.05833 40.9351 6.885 41.1284 6.665V2.935H42.0184ZM44.3496 0.635V8H43.4596V0.635H44.3496ZM47.3479 8.08C46.9479 8.08 46.6396 7.96833 46.4229 7.745C46.2096 7.52167 46.1029 7.2 46.1029 6.78V3.68H45.4929C45.4396 3.68 45.3946 3.665 45.3579 3.635C45.3212 3.60167 45.3029 3.55167 45.3029 3.485V3.13L46.1329 3.025L46.3379 1.46C46.3479 1.41 46.3696 1.37 46.4029 1.34C46.4396 1.30667 46.4862 1.29 46.5429 1.29H46.9929V3.035H48.4579V3.68H46.9929V6.72C46.9929 6.93333 47.0446 7.09167 47.1479 7.195C47.2512 7.29833 47.3846 7.35 47.5479 7.35C47.6412 7.35 47.7212 7.33833 47.7879 7.315C47.8579 7.28833 47.9179 7.26 47.9679 7.23C48.0179 7.2 48.0596 7.17333 48.0929 7.15C48.1296 7.12333 48.1612 7.11 48.1879 7.11C48.2346 7.11 48.2762 7.13833 48.3129 7.195L48.5729 7.62C48.4196 7.76333 48.2346 7.87667 48.0179 7.96C47.8012 8.04 47.5779 8.08 47.3479 8.08Z" fill="#625E5E"/>
</svg>
